<?xml version="1.0" encoding="UTF-8" standalone="no"?>
<!-- Created with Inkscape (http://www.inkscape.org/) -->

<svg
   xmlns:dc="http://purl.org/dc/elements/1.1/"
   xmlns:cc="http://creativecommons.org/ns#"
   xmlns:rdf="http://www.w3.org/1999/02/22-rdf-syntax-ns#"
   xmlns:svg="http://www.w3.org/2000/svg"
   xmlns="http://www.w3.org/2000/svg"
   xmlns:sodipodi="http://sodipodi.sourceforge.net/DTD/sodipodi-0.dtd"
   xmlns:inkscape="http://www.inkscape.org/namespaces/inkscape"
   width="505.03799"
   height="460.33826"
   id="svg2"
   version="1.1"
   inkscape:version="0.48.5 r10040"
   sodipodi:docname="New document 1">
  <defs
     id="defs4" />
  <sodipodi:namedview
     id="base"
     pagecolor="#ffffff"
     bordercolor="#666666"
     borderopacity="1.0"
     inkscape:pageopacity="0.0"
     inkscape:pageshadow="2"
     inkscape:zoom="0.70710678"
     inkscape:cx="259.91777"
     inkscape:cy="255.57817"
     inkscape:document-units="px"
     inkscape:current-layer="layer1"
     showgrid="false"
     showguides="true"
     inkscape:guide-bbox="true"
     fit-margin-left="0.3"
     fit-margin-top="0.3"
     fit-margin-right="0.3"
     fit-margin-bottom="0.3"
     inkscape:window-width="1425"
     inkscape:window-height="738"
     inkscape:window-x="448"
     inkscape:window-y="130"
     inkscape:window-maximized="0">
    <sodipodi:guide
       orientation="0,1"
       position="-210.91201,-130.67786"
       id="guide3006" />
  </sodipodi:namedview>
  <metadata
     id="metadata7">
    <rdf:RDF>
      <cc:Work
         rdf:about="">
        <dc:format>image/svg+xml</dc:format>
        <dc:type
           rdf:resource="http://purl.org/dc/dcmitype/StillImage" />
        <dc:title></dc:title>
      </cc:Work>
    </rdf:RDF>
  </metadata>
  <g
     inkscape:label="Layer 1"
     inkscape:groupmode="layer"
     id="layer1"
     transform="translate(-217.98308,-230.82923)">
    <path
       style="fill:#ffc900;fill-opacity:1"
       d="m 219.93091,557.75665 c -1.0247,-1.21713 -3.13087,-3.68532 0.002,-3.11416 22.1086,4.03115 30.96323,0.77883 52.76412,-19.38033 7.61742,-7.04382 18.7083,-14.3383 22.08788,-14.52727 2.94783,-0.1647 1.96795,-1.45013 -4.87609,-6.396 -16.32045,-11.79411 -29.75114,-29.91139 -36.44757,-49.1659 -4.48176,-12.88662 -6.71089,-36.63823 -3.45564,-36.82022 0.64563,-0.0357 2.49703,1.17016 4.11426,2.68056 4.59221,4.28891 12.97902,8.81586 19.2467,10.38877 7.31098,1.83476 15.42441,1.33664 29.56464,-1.81491 13.2391,-2.95079 24.76875,-3.79277 31.08669,-2.27016 3.50636,0.84501 4.29135,0.8311 3.46341,-0.0594 -1.49488,-1.60934 -5.10797,-10.61853 -8.02423,-20.00857 -1.97344,-6.35409 -2.62921,-10.83757 -3.30386,-22.58789 -0.91949,-16.01466 0.19598,-25.29454 4.50305,-37.46295 2.89576,-8.18127 9.73754,-21.21346 11.17915,-21.29407 0.6393,-0.0354 2.01211,2.12918 3.05053,4.81092 4.78836,12.36556 12.49919,21.18314 22.609,25.85408 3.02885,1.39939 10.07011,3.97067 15.64719,5.71394 14.48144,4.52653 19.96044,7.1554 26.4587,12.69494 3.14796,2.6836 6.15891,4.57537 6.69102,4.20394 0.53201,-0.37136 0.8191,-3.32665 0.63787,-6.56726 -0.18128,-3.24063 0.003,-10.80469 0.40981,-16.80908 3.35898,-49.63257 16.96816,-88.73238 39.81568,-114.39231 5.09611,-5.72341 8.50087,-8.77778 9.87014,-8.85433 1.97963,-0.11112 2.06815,0.14827 1.67074,4.88808 -1.53451,18.30263 0.175,38.27502 4.3631,50.97798 3.10453,9.41627 5.96026,15.34238 16.81576,34.89555 11.04101,19.88734 14.07744,27.96509 17.5228,46.61633 1.00694,5.45086 3.07984,6.41037 5.66184,2.62087 8.31256,-12.19991 22.47386,-25.29398 34.97768,-32.34172 13.27831,-7.48425 22.2797,-10.18056 38.88502,-11.64753 11.8036,-1.04277 14.40769,-1.03798 14.44746,0.0267 0.0263,0.71429 -1.87917,3.89883 -4.23526,7.07671 -5.49223,7.40798 -8.54045,14.42829 -9.49936,21.87782 -0.79343,6.16377 -0.55527,7.87393 4.41452,31.6971 1.77035,8.48638 2.03916,11.65227 1.51488,17.84145 -0.35058,4.13838 -1.05158,8.08433 -1.55782,8.7687 -0.50625,0.68439 1.57019,0.0727 4.61426,-1.35944 22.16836,-10.4291 47.58334,-12.72855 70.42063,-6.37132 11.60598,3.2307 26.91398,10.57279 26.60081,12.7583 -0.10615,0.74101 -3.113,2.58047 -6.68183,4.08778 -15.92909,6.72752 -22.23821,14.80842 -29.24715,37.46075 -4.24177,13.70903 -7.08202,19.77088 -12.20266,26.0437 l -4.47855,5.48623 4.84411,0.36907 c 17.09068,1.30185 38.53598,10.4362 53.1191,22.62517 9.90888,8.28212 23.46644,25.37002 23.71948,29.89596 0.0464,0.88342 -0.11068,0.88342 -2.56489,0.88342 -10.13197,0 -333.63239,0 -500.21868,0 z"
       id="path2996"
       inkscape:connector-curvature="0"
       sodipodi:nodetypes="csscsscsssscsssccsscsccscssssssscssssscscsssccscccc" />
    <g
       id="g3809"
       transform="matrix(0.74435548,-0.1542809,0.14053311,0.81717274,-1050.8829,-228.21214)"
       style="fill:#94b3de;fill-opacity:1">
      <path
         style="font-size:medium;font-style:normal;font-variant:normal;font-weight:normal;font-stretch:normal;text-indent:0;text-align:start;text-decoration:none;line-height:normal;letter-spacing:normal;word-spacing:normal;text-transform:none;direction:ltr;block-progression:tb;writing-mode:lr-tb;text-anchor:start;baseline-shift:baseline;color:#000000;fill:#94b3de;fill-opacity:1;fill-rule:nonzero;stroke:none;stroke-width:1;marker:none;visibility:visible;display:inline;overflow:visible;enable-background:accumulate;font-family:Sans;-inkscape-font-specification:Sans"
         d="m 2108.4707,960.18766 c -0.039,0 -0.09,0.011 -0.1401,0.01 -0.099,0 -0.2312,-0.036 -0.4073,-0.042 -0.3526,-0.012 -0.8456,-0.024 -1.5151,-0.042 -1.3391,-0.036 -3.3417,-0.067 -5.8372,-0.1253 -4.991,-0.1169 -12.0923,-0.2741 -20.7263,-0.4595 -17.2682,-0.3708 -40.5114,-0.8683 -64.4451,-1.353 -47.8674,-0.9694 -45.8218,-2.1622 -57.0947,-2.3063 l -7.1804,-0.1 -0.28,0.017 -0.1656,0.1432 -119.0443,92.29404 -119.0445,92.2939 -1.0757,0.8086 1.5851,0.1598 13.2087,1.1681 c 7.3025,0.6371 36.5006,2.8484 64.9741,4.9064 14.2338,1.0289 27.2755,2.0016 36.7678,2.7556 4.7464,0.3771 8.617,0.7089 11.3119,0.9496 1.2488,0.1118 2.1837,0.228 2.8964,0.3027 -0.2951,0.2427 -0.5689,0.4485 -1.0311,0.8169 -1.2946,1.0321 -3.2412,2.5618 -5.7409,4.4976 -4.9992,3.8716 -12.2639,9.4323 -21.258,16.2892 -17.9881,13.7136 -42.8803,32.5679 -70.3233,53.2473 l -99.7982,75.1716 -1.1329,0.8674 1.687,0.1095 25.8826,1.7469 c 14.2297,0.9475 33.767,2.0554 43.509,2.4934 4.8561,0.2185 9.3714,0.479 12.693,0.722 1.6609,0.122 2.9904,0.2242 3.953,0.3277 0.3269,0.035 0.5388,0.079 0.764,0.1096 -0.2745,0.322 -0.7461,0.7915 -1.591,1.5833 -1.839,1.7233 -5.2468,4.7316 -11.2908,9.9384 -12.0878,10.4136 -34.7648,29.6476 -76.6357,65.1721 -18.5322,15.7233 -29.7115,25.325 -36.1571,31.1627 -3.2228,2.9187 -5.2457,4.8984 -6.4407,6.2491 -0.5976,0.6755 -1.0032,1.1851 -1.2283,1.617 -0.2252,0.4321 -0.3185,0.8258 -0.01,1.2547 0.3236,0.4441 0.6659,0.8471 0.9807,1.1619 0.1573,0.1574 0.2725,0.2784 0.4329,0.3957 0.1604,0.1173 0.2911,0.2983 0.7702,0.3198 0,0 0.2033,-0.018 0.2355,-0.026 0.033,-0.01 0.076,-0.011 0.096,-0.017 0.039,-0.012 0.06,-0.036 0.1024,-0.051 0.085,-0.029 0.2019,-0.058 0.3437,-0.1095 0.2835,-0.1035 0.7081,-0.2607 1.2412,-0.4633 1.0663,-0.4052 2.6245,-1.0061 4.6784,-1.8029 4.1078,-1.5933 10.127,-3.953 17.9877,-7.0342 271.5927,-127.9017 -17.2902,9.1903 254.5062,-121.0651 4.2072,-1.6644 8.0361,-3.2442 10.8079,-4.448 1.3858,-0.6018 2.4917,-1.0915 3.2779,-1.4741 0.3932,-0.1913 0.7401,-0.3473 0.9675,-0.4801 0.1138,-0.067 0.1798,-0.1255 0.2674,-0.1938 0.044,-0.034 0.1163,-0.084 0.1654,-0.1431 0.049,-0.059 0.1285,-0.1114 0.1082,-0.3285 -0.033,-0.3734 -0.064,-0.7585 -0.2867,-1.1703 -0.2228,-0.4121 -0.6731,-0.8074 -1.3178,-1.0862 -1.2895,-0.5574 -3.3819,-0.8932 -7.4289,-1.2281 -8.0938,-0.6697 -24.0063,-1.2542 -55.7562,-2.3986 -30.181,-1.088 -45.6482,-1.6374 -53.2736,-2.1044 -3.593,-0.2204 -5.2609,-0.4648 -5.9264,-0.6305 0.025,-0.016 0.3096,-0.1918 0.7827,-0.4801 0.5017,-0.3057 1.2186,-0.7225 2.1323,-1.2719 1.8275,-1.0987 4.4639,-2.6744 7.8033,-4.6665 6.6789,-3.9838 16.1981,-9.6487 27.8654,-16.5765 23.3344,-13.8557 55.2203,-32.7856 90.0564,-53.3941 l 126.6608,-74.9486 1.553,-0.8929 -2.0561,-0.1094 -72.4534,-3.6673 -70.6264,-3.5665 100.7283,-71.054 c 56.0997,-39.5609 107.3416,-75.68924 113.8651,-80.26004 3.268,-2.2898 6.2062,-4.3832 8.3187,-5.9295 1.0563,-0.7732 1.8947,-1.417 2.4759,-1.8698 0.2905,-0.2265 0.5424,-0.3924 0.7001,-0.5307 0.078,-0.069 0.1135,-0.1121 0.1718,-0.1768 0.028,-0.032 0.083,-0.081 0.1209,-0.1516 0.018,-0.035 0.023,-0.072 0.032,-0.1684 0,-0.024 0.016,-0.035 0.012,-0.067 0,-0.033 -0.025,-0.1087 -0.025,-0.1094 -4e-4,0 -0.2217,-0.2854 -0.2229,-0.2863 -7e-4,-6e-4 -0.4368,-0.1893 -0.471,-0.1936 -0.034,0 -0.025,-0.01 -0.044,-0.01 z"
         id="path3811"
         inkscape:connector-curvature="0"
         sodipodi:nodetypes="ccccssscccccccccssscsssccccccccccssccccccsccccccccscccccccsscccssscccccccssccccccccccc" />
    </g>
    <g
       id="g3787"
       transform="translate(-534.57272,0)" />
    <path
       inkscape:connector-curvature="0"
       style="fill:#ffaa00;fill-opacity:1"
       d="m 481.8125,318.5 -22,27.28125 -75.625,93.78125 -0.6875,0.84375 1.1875,-0.125 10,-1.09375 c 5.52519,-0.60602 27.57888,-3.28882 49.0625,-6 10.7396,-1.35521 20.57839,-2.58917 27.75,-3.4375 3.586,-0.42412 6.52271,-0.74967 8.5625,-0.96875 0.94526,-0.10131 1.6465,-0.13859 2.1875,-0.1875 -0.18555,0.24386 -0.36398,0.44014 -0.65625,0.8125 -0.8186,1.04314 -2.06763,2.59496 -3.65625,4.5625 -3.17709,3.93505 -7.80006,9.60286 -13.53125,16.59375 -11.46233,13.9816 -27.32254,33.24243 -44.84375,54.375 L 375.75,557.75 l 133.90625,0 c 7.27525,-5.87186 11.61956,-9.39474 20.625,-16.65625 2.89775,-2.00919 5.54347,-3.90115 7.4375,-5.3125 0.94695,-0.70558 1.68731,-1.2848 2.21875,-1.71875 0.2658,-0.21699 0.50565,-0.38765 0.65625,-0.53125 0.0753,-0.0723 0.10064,-0.11817 0.15625,-0.1875 0.028,-0.0346 0.0968,-0.10038 0.125,-0.15625 0.0282,-0.0558 0.0769,-0.10697 0.0312,-0.28125 -0.077,-0.30004 -0.15136,-0.6041 -0.375,-0.90625 -0.22376,-0.30238 -0.60593,-0.55914 -1.125,-0.6875 -1.03818,-0.25655 -2.65928,-0.2257 -5.71875,0.125 -6.11878,0.70146 -18.04971,2.69302 -41.84375,6.65625 -22.61829,3.76727 -34.19586,5.70517 -39.9375,6.5 -2.70544,0.37423 -3.98135,0.43898 -4.5,0.40625 0.0164,-0.0169 0.18836,-0.22267 0.5,-0.53125 0.33048,-0.32721 0.80334,-0.78508 1.40625,-1.375 1.20591,-1.17978 2.95051,-2.8569 5.15625,-5 4.41162,-4.28588 10.69522,-10.3825 18.40625,-17.84375 15.4219,-14.92255 36.49698,-35.316 59.53125,-57.53125 L 593,404.25 c -0.2545,-1.46701 -0.53873,-3.05721 -0.9375,-4.96875 -1.23982,-5.94318 -2.19794,-10.52178 -2.90625,-14.125 l -27.9375,4.21875 -53.09375,7.96875 43.1875,-48.90625 c -1.07116,0.56769 -2.15588,1.17819 -3.28125,1.8125 -12.50382,7.04774 -26.65619,20.11259 -34.96875,32.3125 -2.582,3.7895 -4.64931,2.85711 -5.65625,-2.59375 -3.44536,-18.65124 -6.49024,-26.73766 -17.53125,-46.625 -3.4134,-6.14829 -5.97457,-10.85797 -8.0625,-14.84375 z"
       id="path2996-7" />
  </g>
</svg>
